<svg width="29" height="26" viewBox="0 0 29 26" fill="none" xmlns="http://www.w3.org/2000/svg">
<path d="M15.1511 7.49846C11.602 7.49846 8.50676 9.9424 8.21853 12.9723C7.93029 16.0022 10.5605 18.4461 14.1096 18.4461C17.6587 18.4461 20.754 16.0022 21.0422 12.9723C21.3304 9.9424 18.7002 7.49846 15.1511 7.49846ZM14.2918 16.531C11.9983 16.531 10.2751 14.9351 10.4618 12.9723C10.6486 11.0095 12.6698 9.41359 14.9689 9.41359C17.268 9.41359 18.9856 11.0095 18.7989 12.9723C18.6122 14.9351 16.5853 16.531 14.2918 16.531ZM23.342 7.27456C23.2745 7.98439 22.5509 8.55131 21.725 8.55131C20.8936 8.55131 20.2839 7.97963 20.351 7.27456C20.418 6.56948 21.1421 5.9978 21.968 5.9978C22.7939 5.9978 23.4091 6.56948 23.342 7.27456ZM27.4654 8.57036C27.5332 6.86009 27.2198 5.34513 25.8709 4.09697C24.5276 2.8488 22.7902 2.45815 20.795 2.3724C18.7398 2.27235 12.5512 2.27235 10.4769 2.3724C8.47143 2.45338 6.65972 2.84403 5.07334 4.0922C3.48697 5.34037 2.89084 6.85532 2.6277 8.5656C2.34282 10.3283 1.84022 15.6116 1.78972 17.3742C1.72189 19.0845 2.03536 20.5995 3.38425 21.8476C4.73315 23.0958 6.46496 23.4865 8.46015 23.5722C10.5154 23.6723 16.704 23.6723 18.7782 23.5722C20.7893 23.4912 22.601 23.1006 24.1822 21.8476C25.763 20.5995 26.3647 19.0845 26.6279 17.3742C26.9128 15.6116 27.4149 10.333 27.4654 8.57036ZM23.7806 19.2656C23.2565 20.1993 22.3454 20.9187 21.2103 21.295C19.511 21.8524 15.617 21.7238 13.7978 21.7238C11.9786 21.7238 8.05501 21.8476 6.46696 21.295C5.40856 20.9234 4.63436 20.2041 4.28279 19.2656C3.76359 17.8602 4.2315 14.5254 4.37924 12.9723C4.52699 11.4192 4.69959 8.07967 5.48016 6.67906C6.00425 5.74531 6.91532 5.02595 8.05045 4.64959C9.74968 4.0922 13.6437 4.22083 15.4629 4.22083C17.2821 4.22083 21.2057 4.09697 22.7938 4.64959C23.8522 5.02118 24.6264 5.74055 24.9779 6.67906C25.4971 8.08444 25.0292 11.4192 24.8815 12.9723C24.7337 14.5254 24.5667 17.8649 23.7806 19.2656Z" fill="white"/>
</svg>
