<svg width="27" height="16" viewBox="0 0 27 16" fill="none" xmlns="http://www.w3.org/2000/svg">
<path d="M25.9448 9.86425C25.68 12.6479 23.975 14.392 21.2055 14.392C18.7602 14.392 17.5637 13.337 15.4728 10.2271L14.3988 8.62332C14.1108 8.2422 13.9026 7.88547 13.6722 7.55618C12.789 8.58673 11.5916 10.0868 11.5916 10.0868C8.63622 13.6419 7.09611 14.392 5.05315 14.392C2.21018 14.392 0.680282 12.6449 0.937267 9.94352C1.35204 5.5835 4.8603 1.46436 8.92749 1.46436C10.8884 1.46436 12.52 2.21684 14.3241 4.19318C15.9187 2.66565 17.6345 1.46436 19.6853 1.46436C23.5564 1.46436 26.3793 5.2969 25.9448 9.86425ZM12.536 6.0317C11.0403 4.13829 9.99992 3.57729 8.69133 3.57729C6.27336 3.57729 3.93905 6.81224 3.63769 9.98011C3.49702 11.4589 4.14 12.2882 5.35484 12.2882C6.53453 12.2882 7.32402 11.7089 9.68717 9.12335C9.68717 9.12335 10.7654 7.9312 12.536 6.0317ZM21.4642 12.2882C22.722 12.2882 23.376 11.4497 23.5135 10.0045C23.8737 6.21769 22.0462 3.13153 19.3548 3.13153C18.058 3.13153 16.8929 3.92182 15.4215 5.51033C15.7487 5.93109 16.0835 6.39453 16.4343 6.89456L17.7182 8.79711C19.7382 11.6662 20.2572 12.2882 21.4642 12.2882Z" fill="white"/>
</svg>
