<svg width="29" height="26" viewBox="0 0 29 26" fill="none" xmlns="http://www.w3.org/2000/svg">
<path d="M15.7483 1.16235C8.84471 1.16235 2.74509 6.45197 2.12435 12.9771C1.50361 19.5022 6.59682 24.7918 13.5004 24.7918C20.404 24.7918 26.5036 19.5022 27.1243 12.9771C27.7451 6.45197 22.6519 1.16235 15.7483 1.16235ZM20.7779 9.19732C20.412 11.0655 19.1668 15.5991 18.5535 17.6915C18.2941 18.5769 17.9207 18.8738 17.584 18.9028C16.8522 18.966 16.35 18.4494 15.6884 18.0138C14.6531 17.3321 14.0719 16.9078 13.0673 16.2427C11.9063 15.474 12.7465 15.0517 13.5155 14.3609C13.7168 14.1802 17.1767 11.4305 17.2623 11.1811C17.273 11.1499 17.2915 11.0334 17.224 10.9722C17.1566 10.9111 17.0469 10.9318 16.9675 10.9484C16.8549 10.9721 14.9929 12.0701 11.3815 14.2424C10.8519 14.5661 10.3851 14.7239 9.98098 14.7156C9.53553 14.7065 8.69883 14.4771 8.07924 14.281C7.3193 14.0405 6.70922 13.9134 6.80226 13.5049C6.85073 13.2921 7.18141 13.0745 7.79429 12.8522C11.5811 11.3516 14.1051 10.3623 15.3664 9.88424C18.9676 8.5195 19.7114 8.28244 20.1823 8.27453C20.2859 8.27291 20.5148 8.29712 20.6536 8.41198C20.7455 8.4938 20.7981 8.60798 20.8011 8.73193C20.8119 8.88583 20.8041 9.04193 20.7779 9.19732Z" fill="white"/>
</svg>
