<svg width="29" height="26" viewBox="0 0 29 26" fill="none" xmlns="http://www.w3.org/2000/svg">
<path d="M24.1001 5.40703C21.9522 3.40615 18.9431 2.30566 15.6339 2.30566C8.80359 2.30566 2.79416 7.05061 2.23944 12.8818C2.06224 14.7445 2.45831 16.5643 3.38817 18.1698L1.10917 23.6484L7.81729 22.1763C9.54511 23.0196 11.5398 23.4626 13.6157 23.4626H13.6213C20.446 23.4626 26.5782 18.7177 27.133 12.8865C27.4017 10.0615 26.2479 7.40791 24.1001 5.40703ZM13.7908 21.6809C11.9381 21.6809 10.1648 21.2569 8.6617 20.4565L8.30595 20.266L4.32792 21.1378L5.6745 17.8935L5.46069 17.56C4.56157 16.1594 4.17391 14.5444 4.33208 12.8818C4.79298 8.03676 9.78877 4.09217 15.4696 4.09217C18.2207 4.09217 20.7174 5.00685 22.5012 6.66949C24.285 8.33213 25.2693 10.5379 25.0403 12.8865C24.579 17.7363 19.466 21.6809 13.7908 21.6809ZM20.0644 15.097C19.7702 14.9636 18.3075 14.3252 18.031 14.2395C17.7551 14.149 17.5527 14.1061 17.3208 14.3729C17.089 14.6397 16.4412 15.2304 16.2399 15.4114C16.0445 15.5877 15.8581 15.6115 15.5639 15.4781C13.8185 14.7016 12.6824 14.0918 11.6498 12.3339C11.3762 11.867 12.0091 11.9004 12.6967 10.8904C12.814 10.7141 12.7782 10.5617 12.7128 10.4283C12.6474 10.2949 12.1517 8.99432 11.9453 8.46552C11.7431 7.95101 11.4796 8.02247 11.2908 8.01294C11.1131 8.00341 10.9066 8.00341 10.7002 8.00341C10.4937 8.00341 10.1525 8.07011 9.84301 8.33213C9.53303 8.59891 8.67431 9.23729 8.55059 10.5379C8.42686 11.8384 9.41771 13.0961 9.55161 13.2724C9.69109 13.4487 11.463 16.1165 14.462 17.2646C16.3574 17.9888 17.1216 18.0507 18.1155 17.9268C18.7199 17.8506 20.0066 17.2885 20.3222 16.6691C20.6378 16.0498 20.6881 15.521 20.6204 15.4114C20.5592 15.2923 20.3591 15.2256 20.0644 15.097Z" fill="white"/>
</svg>
