<svg width="29" height="26" viewBox="0 0 29 26" fill="none" xmlns="http://www.w3.org/2000/svg">
<path d="M6.85022 22.1238H1.66719L3.02272 7.87462H8.20575L6.85022 22.1238ZM5.79635 5.93091C4.13899 5.93091 2.90617 4.75896 3.04077 3.34405C3.10542 2.66442 3.48367 2.01262 4.09231 1.53205C4.70096 1.05148 5.49013 0.781494 6.28622 0.781494C7.08231 0.781494 7.82012 1.05148 8.33732 1.53205C8.85453 2.01262 9.10877 2.66442 9.04412 3.34405C8.90951 4.75896 7.45316 5.93091 5.79635 5.93091ZM26.2487 22.1238H21.0768L21.7366 15.1874C21.8939 13.5343 22.0565 11.4143 19.4008 11.4143C16.7061 11.4143 16.1223 13.2103 15.9455 15.0683L15.2743 22.1238H10.0969L11.4524 7.87462H16.4234L16.2385 9.81833H16.311C17.1095 8.69879 18.9122 7.51732 21.4339 7.51732C26.6795 7.51732 27.3632 10.4662 26.9989 14.2965L26.2542 22.1238H26.2487Z" fill="white"/>
</svg>
