<svg width="16" height="16" viewBox="0 0 16 16" fill="none" xmlns="http://www.w3.org/2000/svg">
<path opacity="0.4" d="M4.00493 6H2.00493V13.1344C1.98618 13.1437 1.96743 13.1562 1.9518 13.1687L0.451803 14.1687C0.0861776 14.4125 -0.0794474 14.8687 0.0486776 15.2906C0.176803 15.7125 0.564303 16 1.00493 16H15.0049C15.4456 16 15.8331 15.7125 15.9612 15.2906C16.0893 14.8687 15.9268 14.4125 15.5581 14.1687L14.0581 13.1687C14.0393 13.1562 14.0206 13.1469 14.0018 13.1344V6H12.0049V13H10.7549V6H8.75493V13H7.25493V6H5.25493V13H4.00493V6Z" fill="#4C5966"/>
<path d="M8.50184 0.13125C8.19559 -0.04375 7.81746 -0.04375 7.50809 0.13125L0.508088 4.13125C0.114338 4.35625 -0.0794116 4.81875 0.0362134 5.25625C0.151838 5.69375 0.551838 6 1.00496 6H15.005C15.4581 6 15.855 5.69375 15.9706 5.25625C16.0862 4.81875 15.8925 4.35625 15.5018 4.13125L8.50184 0.13125Z" fill="#4C5966"/>
</svg>
