<svg width="14" height="16" viewBox="0 0 14 16" fill="none" xmlns="http://www.w3.org/2000/svg">
<path opacity="0.4" d="M2.98999 4C2.98999 2.93913 3.41142 1.92172 4.16156 1.17157C4.91171 0.421427 5.92912 0 6.98999 0C8.05086 0 9.06827 0.421427 9.81842 1.17157C10.5686 1.92172 10.99 2.93913 10.99 4C10.99 5.06087 10.5686 6.07828 9.81842 6.82843C9.06827 7.57857 8.05086 8 6.98999 8C5.92912 8 4.91171 7.57857 4.16156 6.82843C3.41142 6.07828 2.98999 5.06087 2.98999 4Z" fill="#4C5966"/>
<path d="M-0.0100098 15.0719C-0.0100098 11.9937 2.48374 9.5 5.56187 9.5H8.41812C11.4962 9.5 13.99 11.9937 13.99 15.0719C13.99 15.5844 13.5744 16 13.0619 16H0.918115C0.405615 16 -0.0100098 15.5844 -0.0100098 15.0719Z" fill="#4C5966"/>
</svg>
