<svg width="13" height="16" viewBox="0 0 13 16" fill="none" xmlns="http://www.w3.org/2000/svg">
<path opacity="0.4" d="M0.48999 2C0.48999 0.896875 1.38687 0 2.48999 0H7.48999V4C7.48999 4.55312 7.93687 5 8.48999 5H12.49V14C12.49 15.1031 11.5931 16 10.49 16H2.48999C1.38687 16 0.48999 15.1031 0.48999 14V2ZM3.98999 8C3.71499 8 3.48999 8.225 3.48999 8.5C3.48999 8.775 3.71499 9 3.98999 9H8.98999C9.26499 9 9.48999 8.775 9.48999 8.5C9.48999 8.225 9.26499 8 8.98999 8H3.98999ZM3.98999 10C3.71499 10 3.48999 10.225 3.48999 10.5C3.48999 10.775 3.71499 11 3.98999 11H8.98999C9.26499 11 9.48999 10.775 9.48999 10.5C9.48999 10.225 9.26499 10 8.98999 10H3.98999ZM3.98999 12C3.71499 12 3.48999 12.225 3.48999 12.5C3.48999 12.775 3.71499 13 3.98999 13H8.98999C9.26499 13 9.48999 12.775 9.48999 12.5C9.48999 12.225 9.26499 12 8.98999 12H3.98999Z" fill="#4C5966"/>
<path d="M12.49 5L7.48999 0V4C7.48999 4.55312 7.93687 5 8.48999 5H12.49ZM3.98999 8C3.71499 8 3.48999 8.225 3.48999 8.5C3.48999 8.775 3.71499 9 3.98999 9H8.98999C9.26499 9 9.48999 8.775 9.48999 8.5C9.48999 8.225 9.26499 8 8.98999 8H3.98999ZM3.98999 10C3.71499 10 3.48999 10.225 3.48999 10.5C3.48999 10.775 3.71499 11 3.98999 11H8.98999C9.26499 11 9.48999 10.775 9.48999 10.5C9.48999 10.225 9.26499 10 8.98999 10H3.98999ZM3.98999 12C3.71499 12 3.48999 12.225 3.48999 12.5C3.48999 12.775 3.71499 13 3.98999 13H8.98999C9.26499 13 9.48999 12.775 9.48999 12.5C9.48999 12.225 9.26499 12 8.98999 12H3.98999Z" fill="#4C5966"/>
</svg>
